<svg width="14" height="20" viewBox="0 0 14 20" fill="none" xmlns="http://www.w3.org/2000/svg">
    <path d="M10.7205 11.5802L9.79142 2.4683C9.79111 2.46705 9.79049 2.4658 9.79018 2.46455C9.79018 2.4633 9.79049 2.46236 9.79049 2.46111C9.61518 1.05861 8.41549 0.000488281 6.99986 0.000488281C5.58393 0.000488281 4.38424 1.05861 4.20893 2.46143C4.20861 2.46299 4.20924 2.46424 4.20924 2.46549C4.20924 2.46674 4.2083 2.46768 4.2083 2.46861L3.27799 11.5802C1.6883 11.7249 0.437988 13.0639 0.437988 14.6908C0.437988 16.4127 1.83768 17.8133 3.55893 17.8155C3.56049 17.8155 3.56143 17.8164 3.56299 17.8164H3.80205C4.30455 19.0927 5.54674 19.9999 6.99924 19.9999C8.45174 19.9999 9.69392 19.0927 10.1964 17.8164H10.4367C10.4383 17.8164 10.4392 17.8155 10.4408 17.8155C12.1621 17.8133 13.5617 16.4127 13.5617 14.6908C13.5617 13.0636 12.3108 11.7242 10.7205 11.5802ZM10.4367 17.1908C10.4355 17.1908 10.4349 17.1914 10.4336 17.1914H10.3761C10.4139 16.9877 10.4364 16.7786 10.4364 16.5639C10.4364 16.5633 10.4367 16.5627 10.4367 16.562C10.4367 16.2171 10.7171 15.9367 11.0617 15.9367C11.2346 15.9367 11.3742 15.797 11.3742 15.6242C11.3742 15.4514 11.2346 15.3117 11.0617 15.3117C10.3733 15.3117 9.8133 15.8714 9.81205 16.5595C9.81205 16.5605 9.81143 16.5614 9.81143 16.5624C9.81143 18.1133 8.54986 19.3749 6.99892 19.3749C5.44799 19.3749 4.18643 18.1133 4.18643 16.5624C4.18643 16.5614 4.1858 16.5605 4.1858 16.5595C4.18455 15.8717 3.62455 15.3124 2.93611 15.3124C2.7633 15.3124 2.62361 15.452 2.62361 15.6249C2.62361 15.7977 2.7633 15.9374 2.93611 15.9374C3.2808 15.9374 3.56111 16.2174 3.56111 16.562C3.56111 16.5627 3.56143 16.5633 3.56143 16.5639C3.56143 16.7786 3.58393 16.9874 3.62174 17.1914H3.56549C3.56424 17.1914 3.56361 17.1908 3.56236 17.1908C2.18393 17.1908 1.06236 16.0692 1.06236 14.6908C1.06236 13.3124 2.18393 12.1908 3.56236 12.1908C3.56674 12.1908 3.57049 12.1883 3.57486 12.1883C3.6108 12.1864 3.6458 12.1805 3.67768 12.1677C3.69674 12.1602 3.71174 12.1474 3.72893 12.1361C3.74424 12.1261 3.76049 12.118 3.77393 12.1055C3.79018 12.0905 3.80143 12.072 3.81424 12.0536C3.82361 12.0402 3.83424 12.028 3.84143 12.013C3.85143 11.9927 3.85549 11.9705 3.86111 11.948C3.86424 11.9349 3.8708 11.9236 3.87236 11.9099L4.82986 2.53174C4.96955 1.44455 5.9008 0.625488 6.99986 0.625488C8.10018 0.625488 9.03236 1.44643 9.16955 2.53611L10.1258 11.9099C10.1277 11.9283 10.1361 11.9436 10.1411 11.9608C10.1458 11.9777 10.1483 11.9942 10.1555 12.0096C10.1652 12.0305 10.1796 12.0477 10.1933 12.0658C10.2033 12.0786 10.2111 12.0927 10.223 12.1039C10.2408 12.1208 10.2621 12.1324 10.2833 12.1449C10.2958 12.1517 10.3061 12.1617 10.3196 12.1667C10.3558 12.1817 10.3952 12.1905 10.4364 12.1905H10.4367C11.8152 12.1905 12.9367 13.312 12.9367 14.6905C12.9367 16.0689 11.8152 17.1908 10.4367 17.1908Z" fill="white"/>
</svg>