<svg width="10" height="28" viewBox="0 0 10 28" fill="none" xmlns="http://www.w3.org/2000/svg">
    <path d="M1.15627 27.125H9.28126C9.38901 27.125 9.49234 27.0789 9.56853 26.9969C9.64471 26.9148 9.68751 26.8035 9.68751 26.6875V13.5625C9.6905 12.593 9.42027 11.6453 8.91253 10.8447C8.40478 10.0441 7.68342 9.42824 6.84377 9.07851V3.5C6.95151 3.5 7.05484 3.45391 7.13103 3.37186C7.20722 3.28981 7.25002 3.17853 7.25002 3.0625V1.3125C7.25002 1.19647 7.20722 1.08519 7.13103 1.00314C7.05484 0.921094 6.95151 0.875 6.84377 0.875H3.59377C3.48603 0.875 3.3827 0.921094 3.30651 1.00314C3.23032 1.08519 3.18752 1.19647 3.18752 1.3125V3.0625C3.18752 3.17853 3.23032 3.28981 3.30651 3.37186C3.3827 3.45391 3.48603 3.5 3.59377 3.5V9.07851C2.75412 9.42824 2.03276 10.0441 1.52501 10.8447C1.01727 11.6453 0.747035 12.593 0.750025 13.5625V26.6875C0.750025 26.8035 0.792825 26.9148 0.869012 26.9969C0.945199 27.0789 1.04853 27.125 1.15627 27.125ZM4.00002 1.75H6.43752V2.625H4.00002V1.75ZM4.1219 9.8058C4.20437 9.77787 4.27641 9.72233 4.32756 9.64727C4.3787 9.5722 4.40628 9.48152 4.40627 9.38842V3.5H6.03127V9.38842C6.03126 9.48152 6.05884 9.5722 6.10998 9.64727C6.16113 9.72233 6.23317 9.77787 6.31564 9.8058C6.99285 10.0326 7.59373 10.4676 8.0444 11.0573C8.49507 11.647 8.77587 12.3657 8.85227 13.125H1.58548C1.66185 12.3657 1.94262 11.647 2.39325 11.0573C2.84388 10.4676 3.44473 10.0326 4.1219 9.8058ZM1.56252 14H8.87502V19.25H1.56252V14ZM1.56252 20.125H8.87502V26.25H1.56252V20.125Z" fill="white"/>
</svg>