<svg width="12" height="24" viewBox="0 0 12 24" fill="none" xmlns="http://www.w3.org/2000/svg">
    <path d="M9.6 22H6.4V13.5796C9.54815 13.3681 11.9951 10.7552 12 7.6C12 7.5853 11.9992 7.5706 11.9976 7.556L11.1976 0.356C11.1751 0.15335 11.0039 0 10.8 0H1.2C0.9961 0 0.82485 0.15335 0.8024 0.356L0.00239983 7.556C0.000799826 7.5706 0 7.5853 0 7.6C0.0049 10.7552 2.45185 13.3681 5.6 13.5796V22H2.4C1.73725 22 1.2 22.5373 1.2 23.2V23.6C1.2 23.8209 1.3791 24 1.6 24H10.4C10.6209 24 10.8 23.8209 10.8 23.6V23.2C10.8 22.5373 10.2628 22 9.6 22ZM1.56 0.8H10.44L10.84 4.4H1.16L1.56 0.8ZM0.8 7.622L1.0692 5.2H10.9308L11.2 7.622C11.2 10.4939 8.8719 12.822 6 12.822C3.1281 12.822 0.8 10.4939 0.8 7.622ZM2 23.2C2 22.9791 2.1791 22.8 2.4 22.8H9.6C9.8209 22.8 10 22.9791 10 23.2H2Z" fill="white"/>
</svg>