<svg width="24" height="24" viewBox="0 0 24 24" fill="none" xmlns="http://www.w3.org/2000/svg">
    <path d="M19.0783 5.59808C20.076 4.27588 20.6896 2.52942 20.6896 0.609375H19.8622C19.8622 4.1684 17.5668 7.07245 14.703 7.21637C14.3785 7.02557 14.0147 6.89703 13.6262 6.84485C13.4372 5.42963 12.2252 4.33356 10.7587 4.33356C9.8562 4.33356 9.02582 4.75671 8.48456 5.44647C7.95392 4.77045 7.13141 4.33356 6.20691 4.33356C4.60968 4.33356 3.31036 5.63269 3.31036 7.2301C3.31036 7.86768 3.51984 8.47101 3.89062 8.96429C2.61145 9.26459 1.65509 10.4125 1.65509 11.7817C1.65509 12.6887 2.07477 13.4989 2.72937 14.0303C1.62158 14.4375 0.827454 15.5001 0.827454 16.7472C0.827454 17.2405 0.952148 17.7131 1.18707 18.1384C0.46875 18.666 0 19.5139 0 20.4714C0 22.0686 1.29932 23.3679 2.89655 23.3679C3.93311 23.3679 4.84149 22.8188 5.35364 21.9983C5.84198 22.3467 6.4303 22.5403 7.03491 22.5403C8.1947 22.5403 9.19446 21.8535 9.65662 20.8669C10.1094 21.147 10.6304 21.299 11.1724 21.299C12.4605 21.299 13.5542 20.4532 13.9292 19.288C14.3507 19.5183 14.8233 19.6437 15.3104 19.6437C16.9076 19.6437 18.2069 18.3444 18.2069 16.7472C18.2069 16.1182 18.0029 15.5369 17.6611 15.0615C18.4979 14.5397 19.0345 13.617 19.0345 12.6094C19.0345 11.0121 17.749 9.70331 16.138 9.71613C16.138 9.71484 16.138 9.71411 16.138 9.71283C16.138 9.04614 15.9097 8.43329 15.5297 7.94348C16.5344 7.7373 17.4554 7.242 18.2346 6.52954C18.5065 9.2428 20.8022 11.3679 23.5862 11.3679H24V10.9543C24 8.14233 21.8309 5.83136 19.0783 5.59808ZM15.2747 10.0906C15.2743 10.0919 15.2736 10.093 15.2736 10.0942C15.2661 10.1349 15.2516 10.1728 15.2417 10.2127C15.2238 10.2834 15.206 10.3542 15.1816 10.4216C15.1617 10.4764 15.136 10.528 15.1117 10.5802C15.0884 10.6298 15.0654 10.6791 15.0385 10.7267C15.0079 10.7805 14.9742 10.8325 14.939 10.8834C14.911 10.9241 14.8812 10.9634 14.8502 11.0019C14.8105 11.0511 14.7704 11.1 14.7261 11.1454C14.6904 11.1823 14.6519 11.2154 14.6138 11.2493C14.5692 11.2896 14.5258 11.3309 14.4778 11.3668C14.3917 11.4309 14.3018 11.4897 14.2062 11.5402C14.1802 11.5543 14.1513 11.5633 14.1248 11.5761C14.044 11.6142 13.9616 11.6494 13.8755 11.6772C13.8437 11.6874 13.8105 11.6944 13.7783 11.7032C13.6761 11.7305 13.5731 11.755 13.4652 11.7665C13.4548 11.7607 13.4442 11.7565 13.4337 11.7508C13.2347 11.6369 13.0212 11.5463 12.7961 11.4818C12.7659 11.473 12.7354 11.4661 12.7046 11.4582C12.6202 11.4371 12.5341 11.4197 12.447 11.406C12.4151 11.4011 12.3832 11.3952 12.3508 11.3912C12.2384 11.3774 12.124 11.3683 12.0082 11.3679C12.0062 11.3679 12.0042 11.3676 12.002 11.3676C11.8125 11.2256 11.6525 11.0543 11.5237 10.8631L11.4972 10.8217C11.3337 10.5661 11.2311 10.2834 11.1921 9.98181L11.1852 9.93329C11.1773 9.86096 11.1724 9.78735 11.1724 9.71283C11.1724 8.5719 12.1005 7.64392 13.2413 7.64392C14.3822 7.64392 15.3102 8.5719 15.3102 9.71283C15.3104 9.84192 15.2975 9.96808 15.2747 10.0906ZM13.8054 15.2606C13.7681 15.3289 13.7256 15.3937 13.6809 15.457C13.6668 15.4768 13.6531 15.4971 13.6382 15.5171C13.5985 15.5696 13.5546 15.6193 13.5095 15.6676C13.4863 15.6925 13.4639 15.7181 13.4396 15.7418C13.3976 15.7826 13.353 15.8199 13.3079 15.8577C13.2773 15.8829 13.2471 15.9089 13.2149 15.9324C13.1706 15.9651 13.123 15.9937 13.0757 16.023C13.0395 16.0453 13.0038 16.069 12.9662 16.0889C12.9549 16.0946 12.9426 16.0992 12.9315 16.1047C12.9252 16.1001 12.9183 16.0968 12.912 16.0922C12.6786 15.9159 12.4188 15.7747 12.1382 15.6751C12.1199 15.6685 12.1025 15.6616 12.0844 15.6553C11.9533 15.6118 11.8184 15.5779 11.6797 15.5532C11.6536 15.5486 11.6276 15.5447 11.601 15.5411C11.4613 15.5204 11.3185 15.5059 11.1724 15.5059C11.0209 15.5059 10.8701 15.5178 10.721 15.5414C10.723 15.5279 10.7223 15.5142 10.7243 15.5006C10.7446 15.3653 10.7585 15.2291 10.7585 15.0921C10.7585 14.9791 10.7503 14.8683 10.738 14.7587C10.7338 14.7215 10.7267 14.6845 10.721 14.6473C10.7098 14.5748 10.6967 14.5032 10.68 14.4326C10.6705 14.3912 10.6597 14.3498 10.6481 14.3088C10.6287 14.2388 10.606 14.1711 10.5811 14.1031C10.5683 14.0684 10.5568 14.0328 10.5427 13.9984C10.5013 13.8972 10.4553 13.7986 10.4031 13.7034C10.4028 13.7027 10.4024 13.7018 10.402 13.7009C10.4235 13.6851 10.4416 13.665 10.4628 13.6485C10.5529 13.5786 10.6395 13.5057 10.7197 13.4266C10.7395 13.4068 10.7578 13.3857 10.7772 13.3654C10.8604 13.2784 10.9385 13.1878 11.0098 13.0919C11.0222 13.0748 11.0338 13.058 11.0458 13.041C11.1211 12.9355 11.1885 12.8254 11.2489 12.7103C11.2548 12.6991 11.261 12.6876 11.2668 12.6764C11.3309 12.5499 11.3864 12.4195 11.4315 12.2838C11.4318 12.282 11.4327 12.2809 11.4335 12.2792C11.623 12.2238 11.8125 12.1956 12 12.1956C12.1269 12.1956 12.2499 12.2109 12.3706 12.2333C12.4067 12.2399 12.4422 12.2487 12.4779 12.2569C12.5669 12.278 12.6537 12.3052 12.7377 12.3376C12.769 12.3495 12.8015 12.36 12.8324 12.3735C12.9446 12.4232 13.053 12.4803 13.1536 12.5482L13.1565 12.5502C13.2475 12.6119 13.3299 12.6846 13.4101 12.7595C13.4875 12.8324 13.5558 12.9122 13.6207 12.9946C13.6419 13.0215 13.6659 13.0452 13.6853 13.0732C13.754 13.1704 13.8115 13.2744 13.8627 13.3812C13.8715 13.3997 13.8838 13.4163 13.8922 13.4348C13.9455 13.5557 13.9852 13.6815 14.0147 13.8105C14.0167 13.8197 14.0209 13.8279 14.0229 13.8371C14.051 13.9695 14.0647 14.1057 14.066 14.2427L14.0572 14.3879C14.0394 14.6871 13.9563 14.9718 13.8221 15.2271C13.8173 15.2382 13.8116 15.2492 13.8054 15.2606ZM8.04163 16.9314C7.95428 16.8988 7.86548 16.8706 7.77429 16.8466C7.74994 16.84 7.72595 16.8338 7.70105 16.8279C7.61682 16.8082 7.53094 16.7924 7.44415 16.78C7.41815 16.7763 7.39288 16.7712 7.36688 16.7679C7.25757 16.7556 7.14697 16.7474 7.03455 16.7474C6.91663 16.7474 6.79413 16.756 6.66412 16.7741C6.64966 16.7639 6.63519 16.7536 6.62073 16.7428C6.62073 16.6489 6.61578 16.5553 6.60626 16.4626C6.60004 16.4002 6.58923 16.3389 6.57898 16.2772C6.57385 16.2482 6.57147 16.2189 6.56561 16.1904C6.55078 16.1142 6.53137 16.0397 6.51068 15.9657C6.50684 15.9525 6.50446 15.9388 6.50024 15.9256C6.47717 15.847 6.44934 15.7703 6.42004 15.6947C6.41675 15.6859 6.41382 15.6769 6.41052 15.6682C6.37994 15.5923 6.34552 15.5187 6.30872 15.4464C6.30414 15.4373 6.29993 15.4281 6.29535 15.4189C6.25946 15.349 6.21973 15.2816 6.17798 15.2155C6.17047 15.2034 6.16388 15.191 6.15601 15.1794C6.11536 15.1166 6.07159 15.0566 6.02655 14.9971C6.01538 14.9824 6.00494 14.9676 5.99377 14.9531C5.9491 14.8969 5.90204 14.8431 5.85315 14.7902C5.84271 14.7788 5.83374 14.7665 5.82294 14.7552C5.84729 14.6063 5.88831 14.4606 5.94489 14.3199C6.06006 14.2566 6.16882 14.1833 6.27393 14.1052C6.28345 14.0982 6.29297 14.0911 6.30249 14.0841C6.51068 13.9255 6.69598 13.7402 6.85455 13.532C6.86206 13.5225 6.86902 13.513 6.87616 13.5031C6.95306 13.3997 7.02502 13.292 7.08801 13.1786C7.0979 13.1746 7.10742 13.1704 7.11731 13.1662C7.22534 13.1241 7.33539 13.0906 7.44708 13.0673C7.46576 13.0637 7.4848 13.0611 7.50385 13.0578C7.62177 13.0367 7.74097 13.0232 7.86218 13.0232C7.99365 13.0232 8.12164 13.0384 8.24652 13.062C8.26263 13.0649 8.2793 13.067 8.29504 13.0703C8.41333 13.0955 8.52795 13.1323 8.638 13.177C8.65668 13.1845 8.6748 13.1924 8.69312 13.2003C8.80096 13.2479 8.90497 13.3037 9.00256 13.3682C9.0174 13.3781 9.03186 13.3898 9.04669 13.4C9.13403 13.4612 9.21606 13.5295 9.2926 13.6033C9.30615 13.6165 9.32062 13.6276 9.33398 13.6414C9.40631 13.715 9.47003 13.7964 9.53082 13.8801C9.56451 13.9259 9.59418 13.9739 9.62366 14.022C9.66119 14.0837 9.69598 14.1469 9.72693 14.2128C9.74817 14.257 9.76831 14.3018 9.78625 14.3478C9.81683 14.4267 9.84119 14.5082 9.86188 14.5915C9.87195 14.6303 9.88385 14.6684 9.89136 14.7076C9.91571 14.8326 9.93109 14.9604 9.93109 15.0921C9.93109 15.2166 9.91644 15.3413 9.89209 15.4649C9.88092 15.5211 9.86023 15.5771 9.84412 15.633C9.82178 15.7103 9.8031 15.7877 9.77124 15.8643C9.29956 16.1237 8.91394 16.5168 8.64917 16.996C8.56091 17.0341 8.4765 17.0647 8.39539 17.0883C8.29614 17.0354 8.19269 16.9894 8.08722 16.9481C8.07239 16.9422 8.05701 16.9373 8.04163 16.9314ZM7.44818 11.7817C7.44818 11.653 7.43701 11.5272 7.42053 11.4031C7.41687 11.3758 7.41266 11.3489 7.40826 11.322C7.38922 11.2033 7.36432 11.0869 7.33118 10.9731C7.32953 10.9675 7.32825 10.9616 7.3266 10.9557C7.28943 10.8303 7.24255 10.7091 7.18927 10.5912C7.1814 10.5742 7.17279 10.5577 7.16492 10.5403C7.1153 10.4359 7.05981 10.335 6.99847 10.2378C6.99225 10.2279 6.98785 10.2164 6.98126 10.2065C7.04169 10.1199 7.11035 10.036 7.18652 9.95563C7.20923 9.94739 7.23065 9.93658 7.25354 9.92761C7.30151 9.90894 7.34912 9.88916 7.39618 9.86792C7.43427 9.85071 7.47198 9.8324 7.5097 9.81335C7.55676 9.78973 7.60272 9.76501 7.64832 9.73846C7.68457 9.71777 7.72028 9.6958 7.75543 9.6731C7.79846 9.64581 7.84113 9.61725 7.88251 9.58777C7.91876 9.56177 7.95447 9.53485 7.98999 9.50757C8.02716 9.47809 8.0636 9.44843 8.0993 9.41766C8.11743 9.40192 8.13739 9.38782 8.15515 9.3717C8.42578 9.2981 8.69714 9.28821 8.9588 9.32208C9.04486 9.33325 9.13037 9.34863 9.21368 9.37061C9.24554 9.37885 9.27686 9.38837 9.30798 9.39789C9.40027 9.42682 9.49054 9.46161 9.57788 9.50336C9.59399 9.51086 9.61047 9.51782 9.62622 9.5257C9.84467 9.63739 10.0446 9.78772 10.2147 9.97339L10.2407 10.002C10.2909 10.0594 10.3412 10.1169 10.3848 10.1807C10.3911 10.2191 10.4009 10.2565 10.4088 10.2942C10.4249 10.3737 10.444 10.4518 10.4667 10.5287C10.4854 10.5925 10.5044 10.6562 10.5275 10.7186C10.5458 10.7675 10.5668 10.8148 10.5875 10.8622C10.6082 10.9098 10.6296 10.9567 10.6529 11.0034C10.6778 11.053 10.7034 11.1019 10.7307 11.1498C10.7369 11.1606 10.7419 11.1722 10.7485 11.183C10.7547 11.2441 10.7589 11.3058 10.7589 11.3679C10.7589 11.5069 10.7419 11.6431 10.7153 11.7759L10.6948 11.8603C10.5892 12.2902 10.3493 12.6689 10.0186 12.9481C10.0078 12.9573 9.99664 12.9661 9.98602 12.975C9.95856 12.997 9.92596 13.0128 9.8974 13.0334C9.83441 12.9714 9.76904 12.9113 9.70093 12.8551C9.63171 12.798 9.55975 12.7445 9.48615 12.6945C9.48431 12.6932 9.48285 12.692 9.48102 12.6907C9.24811 12.5327 8.99396 12.4105 8.72589 12.327C8.72516 12.3267 8.72388 12.3263 8.72296 12.3257C8.64276 12.301 8.56128 12.2807 8.47852 12.2629C8.46643 12.2604 8.45526 12.2567 8.44336 12.2542C8.36755 12.2388 8.29065 12.2285 8.21375 12.219C8.19415 12.2164 8.17529 12.2124 8.1557 12.2102C8.05884 12.2003 7.96088 12.1954 7.86237 12.1954C7.72705 12.1954 7.59338 12.2082 7.46136 12.2265C7.44562 12.2285 7.42914 12.2278 7.41339 12.2302C7.41541 12.2166 7.41467 12.2029 7.41669 12.1891C7.435 12.056 7.44818 11.9203 7.44818 11.7817ZM8.93427 6.25562C9.29205 5.58563 9.99152 5.16101 10.7585 5.16101C11.77 5.16101 12.614 5.89069 12.7928 6.85107C12.778 6.85345 12.7639 6.85876 12.7489 6.86133C12.6207 6.8833 12.494 6.9115 12.3724 6.94995C12.3646 6.95233 12.3567 6.95618 12.3488 6.95856C12.2335 6.99628 12.1221 7.04224 12.0134 7.09351C11.9865 7.10596 11.9599 7.11877 11.9335 7.13196C11.8213 7.18909 11.7125 7.25171 11.6091 7.32202C11.5974 7.32971 11.5871 7.33887 11.5754 7.34674C11.482 7.41266 11.3934 7.48462 11.3086 7.56116C11.287 7.5802 11.2659 7.59924 11.2449 7.61902C11.155 7.70471 11.0698 7.79535 10.9911 7.89185C10.9796 7.90594 10.9697 7.92114 10.9585 7.93561C10.8902 8.0235 10.8272 8.11487 10.7693 8.21008C10.7549 8.23352 10.7399 8.25677 10.7263 8.28113C10.6642 8.38953 10.6088 8.50177 10.5608 8.61804C10.5526 8.63873 10.546 8.65979 10.5375 8.68048C10.498 8.78394 10.4648 8.88977 10.437 8.99835C10.4324 9.01556 10.4251 9.03131 10.4209 9.04871C10.2045 8.88647 9.96625 8.75995 9.71503 8.66437C9.69141 8.65521 9.66742 8.64734 9.64307 8.6391C9.52551 8.59772 9.40558 8.56421 9.28253 8.53839C9.25891 8.53345 9.23621 8.52722 9.21259 8.52319C9.18695 8.51862 9.16223 8.51038 9.13605 8.50616C9.05786 8.40857 8.98993 8.30713 8.93335 8.20331C8.93665 8.19379 8.93793 8.18335 8.94122 8.17383C8.98828 8.03741 9.02637 7.89661 9.05292 7.7514C9.05731 7.72742 9.05988 7.70343 9.06409 7.67944C9.08807 7.53296 9.10345 7.38354 9.10345 7.2301C9.10345 7.07648 9.08807 6.92706 9.065 6.78021C9.06116 6.75586 9.05841 6.73187 9.05365 6.70789C9.02728 6.5625 8.9892 6.42188 8.94159 6.28491C8.93829 6.27502 8.93756 6.26514 8.93427 6.25562ZM6.20691 5.16101C7.05725 5.16101 7.78894 5.67792 8.10626 6.41327C8.15588 6.52899 8.19177 6.64819 8.21997 6.76904C8.22327 6.78314 8.22986 6.79596 8.23279 6.81042C8.26135 6.94775 8.27582 7.08801 8.27582 7.2301C8.27582 7.37201 8.26135 7.51227 8.23279 7.6496C8.22986 7.66406 8.22327 7.67651 8.21997 7.69098C8.19232 7.81183 8.15625 7.93103 8.10626 8.04694C7.95392 8.39905 7.70563 8.69897 7.39581 8.91797C7.37421 8.93317 7.35223 8.94855 7.33026 8.96265C7.23523 9.02472 7.13507 9.08002 7.02997 9.12598C7.01129 9.13385 6.99225 9.14008 6.97357 9.14795C6.73572 9.24316 6.47791 9.29901 6.20691 9.29901C6.14484 9.29901 6.08405 9.29517 6.02362 9.28894C6.01373 9.28326 6.00293 9.27832 5.99249 9.27246C5.94122 9.24261 5.88867 9.21533 5.83539 9.18896C5.80719 9.17487 5.77899 9.16113 5.75098 9.14795C5.69623 9.12305 5.6413 9.10034 5.58508 9.07892C5.55762 9.06848 5.52997 9.05823 5.50232 9.04871C5.44171 9.02765 5.38092 9.00861 5.31903 8.99158C5.29614 8.98535 5.2738 8.97949 5.2511 8.97418C5.1828 8.95715 5.11414 8.94232 5.04382 8.93024C5.0376 8.92914 5.03174 8.92731 5.02551 8.92657C4.46814 8.53839 4.138 7.91034 4.138 7.2301C4.13782 6.08917 5.06616 5.16101 6.20691 5.16101ZM2.48273 11.7817C2.48273 10.6408 3.41089 9.71283 4.55164 9.71283C4.67377 9.71283 4.79169 9.72858 4.90796 9.74872C4.94147 9.75458 4.97498 9.75989 5.00812 9.7674C5.11359 9.79138 5.21594 9.82324 5.31427 9.86243C5.34247 9.87378 5.3703 9.88568 5.39795 9.89813C5.50305 9.94574 5.60522 9.99866 5.70007 10.0624L5.71161 10.0699C5.90808 10.2036 6.07617 10.3737 6.2168 10.5648C6.24792 10.6069 6.27686 10.6503 6.3045 10.6943C6.34589 10.7609 6.38361 10.8303 6.41711 10.9016C6.43652 10.9426 6.45648 10.9836 6.47333 11.0257C6.50592 11.1088 6.53137 11.1954 6.55316 11.2831C6.56232 11.3196 6.57422 11.3551 6.58136 11.3921C6.60535 11.5186 6.62073 11.6486 6.62073 11.7817C6.62073 11.9095 6.60535 12.0339 6.58301 12.1555C6.57898 12.1771 6.57678 12.1985 6.57184 12.2195C6.5495 12.3226 6.51599 12.4215 6.47864 12.5184C6.46289 12.5594 6.44678 12.5999 6.42828 12.64C6.40302 12.6951 6.37189 12.7463 6.34222 12.7989C6.30981 12.8551 6.28052 12.9131 6.24316 12.9661C6.20929 13.0146 6.16882 13.0571 6.13074 13.1021C6.05219 13.196 5.96558 13.2827 5.87164 13.3612C5.8266 13.3989 5.78448 13.4394 5.73596 13.4729C5.68268 13.5106 5.62427 13.5405 5.56714 13.5727C5.2663 13.7448 4.92242 13.8506 4.55182 13.8506C3.41089 13.8506 2.48273 12.9225 2.48273 11.7817ZM1.91418 17.7469C1.74408 17.4421 1.65527 17.1015 1.65527 16.7472C1.65527 15.6064 2.58325 14.6783 3.72418 14.6783C4.27039 14.6783 4.76495 14.8951 5.13483 15.2426C5.2121 15.3151 5.2804 15.395 5.34503 15.4774C5.36609 15.5043 5.39044 15.5283 5.4104 15.5565C5.4787 15.6528 5.53583 15.7562 5.58673 15.8626C5.5957 15.8817 5.60852 15.899 5.61694 15.9185C5.66986 16.0384 5.70959 16.1642 5.73889 16.2922C5.74091 16.3017 5.74548 16.3107 5.74768 16.3202C5.77753 16.4597 5.79309 16.6029 5.79309 16.7474C5.79309 16.843 5.78485 16.9406 5.76874 17.0427C5.55945 17.1454 5.36737 17.2782 5.18811 17.4276C5.15332 17.4562 5.1167 17.4822 5.08356 17.5128C5.02734 17.564 4.97681 17.6212 4.92462 17.6772C4.87958 17.7252 4.83325 17.7719 4.79132 17.8228C4.74921 17.8749 4.71149 17.9304 4.67303 17.9854C4.64246 18.0287 4.6073 18.0688 4.5791 18.1141C4.56995 18.1075 4.55969 18.1029 4.55017 18.0967C4.44928 18.0264 4.34363 17.9623 4.23395 17.9048C4.20172 17.8878 4.16858 17.8729 4.13599 17.8572C4.03949 17.8112 3.94061 17.7702 3.83881 17.735C3.81519 17.7268 3.79285 17.7167 3.76886 17.7094C3.64838 17.6713 3.52386 17.6431 3.39716 17.6208C3.36456 17.6151 3.33142 17.6105 3.29883 17.606C3.16626 17.5876 3.03314 17.5748 2.89655 17.5748C2.74182 17.5748 2.59076 17.5908 2.44263 17.6142C2.41827 17.618 2.39374 17.6208 2.36975 17.6255C2.22382 17.6523 2.08228 17.6913 1.9444 17.7393C1.93451 17.7424 1.92407 17.7433 1.91418 17.7469ZM2.89655 22.5403C1.7558 22.5403 0.827637 21.6123 0.827637 20.4714C0.827637 19.6447 1.31836 18.9346 2.02148 18.6039C2.07477 18.5792 2.12897 18.5568 2.18353 18.5369C2.2403 18.5158 2.29816 18.4988 2.35693 18.4827C2.42322 18.4655 2.4895 18.4475 2.55652 18.4369C2.59607 18.4303 2.638 18.429 2.67847 18.4244C2.9566 18.3968 3.23676 18.4228 3.50189 18.5035C3.52716 18.5112 3.55243 18.5184 3.57715 18.527C3.65424 18.5535 3.72949 18.5854 3.8031 18.6209C3.84576 18.6422 3.88715 18.6649 3.92761 18.6888C3.98474 18.7214 4.04187 18.7542 4.0957 18.7923C4.15814 18.837 4.21564 18.887 4.2724 18.9382C4.30426 18.9668 4.33942 18.9917 4.36945 19.0226C4.41046 19.064 4.4436 19.1125 4.48096 19.1576C4.53333 19.2209 4.58679 19.2834 4.6311 19.3517C4.66168 19.3993 4.6853 19.4509 4.71222 19.5011C4.74701 19.5652 4.78381 19.6285 4.81146 19.6959C4.83838 19.7622 4.85577 19.8329 4.8761 19.9028C4.89221 19.959 4.91364 20.0142 4.92535 20.0717C4.95062 20.2007 4.96545 20.3344 4.96545 20.4714C4.96545 20.6027 4.95007 20.7301 4.92645 20.8546C4.91327 20.9224 4.89093 20.989 4.87061 21.056C4.84955 21.1276 4.83307 21.2009 4.8045 21.2692L4.80121 21.2787C4.48645 22.0193 3.7511 22.5403 2.89655 22.5403ZM7.03455 21.7128C6.53577 21.7128 6.06775 21.5381 5.69385 21.2166C5.69586 21.2087 5.69678 21.2005 5.69879 21.1923C5.72406 21.0938 5.7442 20.9936 5.75922 20.8918C5.76288 20.8682 5.76709 20.8445 5.77002 20.8211C5.78357 20.7065 5.79309 20.5902 5.79309 20.4714C5.79309 20.3253 5.77863 20.1826 5.75757 20.0424C5.75336 20.0158 5.75006 19.9898 5.74548 19.9633C5.72113 19.825 5.68726 19.6902 5.64368 19.5593C5.63745 19.5408 5.63013 19.5225 5.62335 19.5044C5.52374 19.2242 5.38257 18.9648 5.20679 18.7315C5.20386 18.7277 5.20166 18.7231 5.19891 18.7194C5.22253 18.6731 5.24194 18.6238 5.26886 18.5795C5.28204 18.5577 5.29413 18.5354 5.30823 18.5142C5.38055 18.4045 5.46167 18.301 5.55359 18.2071C5.56018 18.2001 5.56769 18.1943 5.57428 18.1877C5.67151 18.0912 5.77698 18.0027 5.89252 17.9266C5.89288 17.9262 5.89325 17.9258 5.89362 17.9253C6.01447 17.8455 6.14447 17.7775 6.2818 17.7239L6.31256 17.7118C6.4259 17.6688 6.54291 17.6358 6.66339 17.6135C6.71631 17.6034 6.76556 17.5968 6.81317 17.5911C6.88678 17.5827 6.96002 17.5748 7.03455 17.5748C7.15906 17.5748 7.27954 17.5908 7.39783 17.6118C7.435 17.6184 7.47235 17.6263 7.50916 17.6354C7.59778 17.6565 7.68384 17.6838 7.76733 17.7156C7.79718 17.7272 7.82831 17.735 7.8576 17.7482C8.08887 17.8493 8.29779 17.9912 8.47614 18.165C8.54938 18.2362 8.61108 18.3151 8.67188 18.3946C8.69476 18.4244 8.72205 18.4497 8.7431 18.4807C8.79034 18.5493 8.82513 18.6248 8.86359 18.698C9.01172 18.9825 9.10364 19.3013 9.10364 19.6439C9.10364 19.7693 9.08789 19.8906 9.06665 20.0098C9.06207 20.035 9.05914 20.0598 9.05383 20.085C8.85059 21.0143 8.0235 21.7128 7.03455 21.7128ZM11.1724 20.4714C10.7089 20.4714 10.2662 20.3176 9.90381 20.0345C9.90509 20.0262 9.90454 20.0178 9.90546 20.0096C9.92084 19.8896 9.93109 19.7679 9.93109 19.6437C9.93109 19.5487 9.92578 19.4542 9.91663 19.3607C9.91406 19.3359 9.90948 19.312 9.90656 19.287C9.89832 19.218 9.88843 19.1494 9.87524 19.0814C9.8703 19.0567 9.86407 19.0323 9.85822 19.0074C9.84338 18.9404 9.82672 18.8741 9.80695 18.8088C9.7998 18.7861 9.79248 18.7637 9.78497 18.7414C9.76355 18.6757 9.73993 18.611 9.71375 18.5469C9.70514 18.5253 9.69562 18.5039 9.6861 18.4823C9.65918 18.4208 9.62988 18.3604 9.59839 18.3003C9.5863 18.2772 9.57404 18.2543 9.56122 18.232C9.53046 18.1778 9.49823 18.1249 9.46436 18.0727C9.44696 18.0461 9.42993 18.0194 9.4118 17.9932C9.38123 17.9495 9.34845 17.9068 9.31531 17.8641C9.29059 17.8328 9.26624 17.801 9.24005 17.7702C9.23108 17.7596 9.22302 17.7484 9.21405 17.738C9.23145 17.6863 9.25616 17.6387 9.27722 17.5889L9.3241 17.4939C9.52478 17.0858 9.8595 16.7507 10.2671 16.5504L10.3755 16.4971C10.4057 16.4846 10.435 16.4705 10.4661 16.4597C10.5315 16.4357 10.5981 16.4183 10.6648 16.4019C10.699 16.3931 10.7329 16.3841 10.7681 16.377C10.8285 16.3651 10.8895 16.3572 10.9503 16.351C10.9904 16.3469 11.0305 16.3434 11.0711 16.3414C11.129 16.3389 11.1865 16.3385 11.2445 16.3407C11.324 16.3436 11.4018 16.3526 11.4787 16.3641C11.5602 16.3766 11.64 16.394 11.7195 16.416C11.779 16.4324 11.8387 16.4495 11.8962 16.4709C11.9507 16.4912 12.0042 16.5143 12.0568 16.5392C12.1176 16.5681 12.1763 16.6009 12.2338 16.6357C12.2732 16.6591 12.3142 16.6804 12.3523 16.7064C12.4358 16.7646 12.5129 16.8305 12.5869 16.9001C12.665 16.9737 12.733 17.0544 12.798 17.1367C12.8203 17.1652 12.8459 17.1905 12.867 17.2203C12.9208 17.2969 12.963 17.3793 13.0056 17.4615C13.027 17.5038 13.0545 17.5422 13.0734 17.586C13.1072 17.6638 13.1281 17.7469 13.1517 17.829C13.1666 17.8802 13.188 17.9286 13.1993 17.9817C13.2261 18.1187 13.2415 18.2593 13.2415 18.4025C13.2415 19.5432 12.3133 20.4714 11.1724 20.4714ZM15.3104 18.8161C14.8614 18.8161 14.4272 18.6693 14.0689 18.3992C14.0689 18.397 14.0685 18.3953 14.0685 18.3937C14.068 18.2567 14.0552 18.1227 14.0361 17.9907C14.0325 17.9667 14.0292 17.9427 14.025 17.9187C13.9766 17.634 13.8871 17.3633 13.7622 17.113C13.7602 17.109 13.7582 17.1048 13.756 17.1008C13.6893 16.9695 13.6137 16.8442 13.5287 16.725C13.5284 16.7241 13.528 16.7232 13.5276 16.7225C13.7254 16.5992 13.9037 16.4509 14.0643 16.2859C14.092 16.2574 14.1185 16.2279 14.1451 16.1986C14.2072 16.1296 14.265 16.0574 14.3199 15.9829C14.3445 15.95 14.3705 15.9185 14.3932 15.8846C14.4565 15.7906 14.514 15.6931 14.5659 15.5923C14.5964 15.5336 14.6221 15.4724 14.6486 15.4116C14.6689 15.3644 14.6887 15.3168 14.7067 15.2682C14.7343 15.1939 14.7603 15.1194 14.7823 15.0425C14.7856 15.0304 14.7876 15.0183 14.7911 15.0064C14.8129 14.9246 14.8348 14.8425 14.8499 14.7585C15.0046 14.7189 15.1978 14.6783 15.3104 14.6783C15.4473 14.6783 15.581 14.6931 15.7104 14.7189C15.7676 14.7301 15.8218 14.7512 15.8771 14.7673C15.9474 14.7876 16.0192 14.805 16.0862 14.8323C16.1519 14.8592 16.214 14.8956 16.277 14.9295C16.3286 14.9572 16.3821 14.9811 16.4308 15.013C16.4974 15.0566 16.5586 15.1086 16.6207 15.1599C17.0801 15.5394 17.3793 16.1063 17.3793 16.7472C17.3793 17.8881 16.4511 18.8161 15.3104 18.8161ZM18.2069 12.6094C18.2069 13.3889 17.7596 14.1028 17.0735 14.452C17.066 14.4461 17.0577 14.4424 17.0504 14.4371C16.817 14.2608 16.5571 14.1196 16.2766 14.02C16.2583 14.0134 16.2411 14.0063 16.2228 14.0001C16.0917 13.9567 15.9567 13.9228 15.8181 13.8979C15.7921 13.8933 15.7659 13.8896 15.7396 13.886C15.5993 13.8653 15.4565 13.8508 15.3104 13.8508C15.3005 13.8508 15.2633 13.8541 15.2157 13.8591C15.1002 13.8627 14.9852 13.8713 14.8709 13.8893C14.8696 13.8805 14.8669 13.8719 14.8656 13.8631C14.8502 13.754 14.8288 13.647 14.8019 13.5425C14.7969 13.5238 14.7927 13.5053 14.7874 13.4865C14.7175 13.2361 14.6147 13.0003 14.484 12.7822C14.4771 12.7703 14.4699 12.7588 14.4626 12.7471C14.3943 12.637 14.3214 12.5299 14.2394 12.4301C14.2511 12.4261 14.2614 12.4199 14.2725 12.4156C14.3611 12.3821 14.4472 12.3441 14.5312 12.3027C14.5441 12.2961 14.5565 12.2895 14.5693 12.2829C14.6603 12.2357 14.7484 12.1844 14.8337 12.1285C14.8354 12.1273 14.837 12.1265 14.8387 12.1252C15.3981 11.7554 15.821 11.1996 16.0168 10.5449C17.2013 10.4705 18.2069 11.4283 18.2069 12.6094ZM19.0552 6.42316C21.2188 6.62878 22.946 8.35602 23.1517 10.5198C20.9879 10.314 19.2609 8.58673 19.0552 6.42316Z" fill="white"/>
</svg>