<svg width="26" height="14" viewBox="0 0 26 14" fill="none" xmlns="http://www.w3.org/2000/svg">
    <path d="M25.4647 5.89053L21.0098 1.73256C19.8771 0.675906 18.4004 0.09375 16.8514 0.09375H16.7519C16.0954 0.09375 15.4376 0.248937 14.849 0.542656C14.3737 0.780312 13.8411 0.90625 13.3101 0.90625H12.6898C12.1584 0.90625 11.6262 0.780312 11.1505 0.542656C10.5618 0.248937 9.90412 0.09375 9.24762 0.09375H9.14809C7.59946 0.09375 6.12274 0.675906 4.99012 1.73256L0.534774 5.89053C0.383243 6.03191 0.36293 6.26509 0.487243 6.43125L2.60421 9.25347C3.65152 10.6502 5.04293 11.7751 6.66306 12.523C8.62402 13.4277 10.8027 13.9062 12.962 13.9062H13.0375C15.1967 13.9062 17.3755 13.4277 19.3718 12.5067C20.9566 11.7751 22.348 10.6502 23.3953 9.25347L25.5122 6.43125C25.6366 6.26509 25.6162 6.03191 25.4647 5.89053ZM5.54424 2.32691C6.52574 1.41081 7.80543 0.90625 9.14809 0.90625H9.24762C9.77899 0.90625 10.3112 1.03219 10.7869 1.26984C11.3751 1.56356 12.0329 1.71875 12.6894 1.71875H13.3097C13.9662 1.71875 14.6239 1.56356 15.2126 1.26984C15.6883 1.03219 16.2209 0.90625 16.7519 0.90625H16.8514C18.1941 0.90625 19.4733 1.41081 20.4548 2.32691L24.5917 6.1875H23.8222C22.8797 6.1875 21.9409 6.05628 21.0333 5.79669C20.0527 5.51719 19.0395 5.375 18.021 5.375H17.8069C16.9911 5.375 16.1746 5.56797 15.4446 5.93237L15.0663 6.12209C14.4488 6.43084 13.7574 6.59375 13.0676 6.59375H12.9319C12.2421 6.59375 11.5506 6.43084 10.9336 6.12209L10.5545 5.93237C9.8249 5.56797 9.00834 5.375 8.19259 5.375H7.97849C6.96002 5.375 5.94684 5.51719 4.96656 5.79669C4.05859 6.05628 3.12015 6.1875 2.17724 6.1875H1.40781L5.54424 2.32691ZM22.7453 8.76637C21.7784 10.0554 20.4942 11.0938 18.996 11.7852C17.1406 12.6412 15.0801 13.0938 13.0375 13.0938H12.962C10.9193 13.0938 8.85843 12.6412 6.96815 11.7686C5.50484 11.0934 4.22068 10.055 3.25381 8.76597L1.92943 7H2.17724C3.19571 7 4.2089 6.85781 5.18918 6.57831C6.09715 6.31872 7.03559 6.1875 7.97849 6.1875H8.19259C8.8824 6.1875 9.57384 6.35041 10.1909 6.65916L10.57 6.84888C11.2996 7.21328 12.1161 7.40625 12.9319 7.40625H13.0676C13.8833 7.40625 14.6999 7.21328 15.4299 6.84888L15.8081 6.65916C16.4256 6.35041 17.1171 6.1875 17.8069 6.1875H18.021C18.9635 6.1875 19.9023 6.31872 20.8099 6.57831C21.7906 6.85781 22.8038 7 23.8222 7H24.0701L22.7453 8.76637Z" fill="white"/>
</svg>