<svg width="18" height="17" viewBox="0 0 18 17" fill="none" xmlns="http://www.w3.org/2000/svg">
    <g>
        <path d="M13.3803 6.82099L14.4379 6.75757C14.4397 6.75744 14.4416 6.75731 14.4435 6.75718C15.1972 6.69702 15.8737 6.3234 16.2997 5.73185L17.1357 4.57111C17.8634 3.56059 18.1454 2.34006 17.9293 1.13448C17.8869 0.897709 17.7589 0.679517 17.5691 0.520324C17.3792 0.361 17.135 0.266914 16.8815 0.255478C15.5903 0.196999 14.3441 0.608302 13.3712 1.4131L12.2537 2.33772C11.6841 2.80881 11.3732 3.48911 11.4004 4.20451C11.4006 4.2062 11.4006 4.20802 11.4007 4.20983L11.461 5.21087C11.4845 5.60112 11.3333 5.98617 11.0469 6.26661L2.31581 14.7544C2.08207 14.9851 1.96136 15.3015 1.97605 15.6455C1.99226 16.0242 2.17587 16.3961 2.46728 16.6405C2.73054 16.8613 3.0924 16.9871 3.45413 16.9871C3.49286 16.9871 3.53158 16.9857 3.57017 16.9827C3.93286 16.9553 4.2505 16.804 4.46556 16.5553L12.3218 7.33717C12.5823 7.03386 12.9682 6.84568 13.3803 6.82099ZM11.9024 7.01592L4.04684 16.2333C3.92682 16.3721 3.74225 16.4576 3.52719 16.4738C3.27134 16.4932 3.00905 16.4126 2.8253 16.2585C2.64155 16.1042 2.52565 15.8674 2.51535 15.6248C2.50656 15.4209 2.57399 15.2373 2.7039 15.1092L11.4343 6.62203C11.8257 6.2388 12.0317 5.71392 11.9999 5.18189L11.9396 4.18345C11.9191 3.62348 12.1629 3.09106 12.6088 2.72213L13.7264 1.79751C14.5937 1.08003 15.7053 0.713694 16.8558 0.765416C16.9868 0.771394 17.1129 0.819996 17.2111 0.902387C17.3093 0.984648 17.3754 1.09745 17.3973 1.21973C17.5899 2.29458 17.3385 3.38255 16.6898 4.28339L15.8537 5.44426C15.5202 5.90742 14.9908 6.2002 14.4008 6.24816L13.3461 6.31131C12.7842 6.3451 12.2582 6.60163 11.9024 7.01592Z" fill="white"/>
        <path d="M17.5015 14.69L11.6472 9.64424C11.5371 9.54924 11.3665 9.55678 11.266 9.661C11.1658 9.76523 11.1737 9.92676 11.2839 10.0218L17.1366 15.0663C17.2758 15.1881 17.3548 15.3675 17.359 15.5716C17.3641 15.8143 17.2635 16.0572 17.0897 16.2216C16.9162 16.3858 16.6599 16.4814 16.4028 16.4764C16.1872 16.4724 15.9976 16.3977 15.8703 16.2673L10.6537 10.8477C10.5533 10.7434 10.3826 10.736 10.2724 10.8308C10.1623 10.9258 10.1543 11.0874 10.2547 11.1916L15.4725 16.6125C15.7019 16.8472 16.0285 16.9803 16.3922 16.987C16.4017 16.9871 16.4111 16.9873 16.4205 16.9873C16.8115 16.9873 17.2025 16.8372 17.4712 16.5827C17.7467 16.322 17.9064 15.9404 17.8985 15.5616C17.8913 15.2173 17.7508 14.9083 17.5015 14.69Z" fill="white"/>
        <path d="M3.25603 6.77285C3.70263 7.16219 4.28284 7.38415 4.88984 7.39793C4.89176 7.39806 4.89368 7.39806 4.89547 7.39806L5.9551 7.40118C6.36819 7.40235 6.76521 7.5683 7.04385 7.85562L7.51063 8.34048C7.56392 8.39584 7.63684 8.42391 7.71017 8.42391C7.77499 8.42391 7.84009 8.40195 7.89172 8.35737C8.002 8.26238 8.00996 8.10085 7.90958 7.99662L7.44211 7.51112C7.06143 7.1184 6.52008 6.89228 5.95689 6.89046L4.90014 6.88734C4.43061 6.87603 3.98168 6.70592 3.63382 6.40794L0.562999 2.95352C0.531688 2.91817 0.534023 2.86697 0.568492 2.83435C0.592113 2.81187 0.619854 2.80862 0.634273 2.80862C0.648693 2.80862 0.676433 2.81187 0.700191 2.83435L3.4954 5.47955C3.7717 5.74102 4.22132 5.74102 4.49763 5.47942L4.82612 5.1687V5.16857L5.40936 4.61666C5.40936 4.61666 5.40949 4.61666 5.40949 4.61653L5.40963 4.6164L5.73799 4.30568C6.01429 4.04422 6.01429 3.61875 5.73799 3.35728L2.94278 0.712209C2.90653 0.677902 2.90653 0.621892 2.94278 0.587584C2.97725 0.554966 3.03136 0.552756 3.06871 0.582386L6.7192 3.48841C7.03424 3.81745 7.214 4.2424 7.22595 4.68658L7.22911 5.6867C7.23103 6.21951 7.47012 6.73179 7.88568 7.0928L8.38583 7.52385C8.49611 7.61885 8.66667 7.61131 8.76706 7.50709C8.86731 7.40274 8.85935 7.24133 8.74921 7.14634L8.24988 6.71593C7.94542 6.45161 7.77019 6.07578 7.76881 5.68501L7.76552 4.68229C7.76552 4.68047 7.76552 4.67865 7.76538 4.67683C7.75082 4.10244 7.51626 3.55338 7.10483 3.13077C7.09713 3.12285 7.08889 3.11531 7.08011 3.10829L3.41602 0.191616C3.16278 -0.0100722 2.79529 0.00500239 2.56128 0.226443C2.3145 0.45997 2.3145 0.839824 2.56128 1.07322L5.35648 3.71842C5.4224 3.7808 5.4224 3.8823 5.35648 3.94467L5.21874 4.07489L2.10342 1.12702C1.99809 1.02722 1.82725 1.02722 1.72192 1.12702C1.61659 1.2267 1.61659 1.38836 1.72192 1.48803L4.83724 4.43603L4.63537 4.62693L1.52005 1.67906C1.41472 1.57939 1.24388 1.57939 1.13855 1.67906C1.03308 1.77874 1.03308 1.9404 1.13855 2.04007L4.25373 4.98807L4.11612 5.11841C4.05021 5.18079 3.94295 5.18079 3.87703 5.11841L1.08169 2.47334C0.962216 2.36028 0.803326 2.2979 0.634273 2.2979C0.465221 2.2979 0.306331 2.36028 0.186854 2.47334C-0.0471554 2.69478 -0.0629483 3.04254 0.15005 3.2823L3.23241 6.74946C3.23969 6.75778 3.24765 6.76557 3.25603 6.77285Z" fill="white"/>
    </g>
</svg>