<svg width="25" height="25" viewBox="0 0 25 25" fill="none" xmlns="http://www.w3.org/2000/svg">
    <g>
        <path d="M12.5284 0C10.9177 0.00184716 9.61239 1.30712 9.61055 2.91784V16.8935C8.37177 17.9045 7.75566 19.4926 7.9884 21.0746C8.34222 23.582 10.6619 25.3278 13.1692 24.9738C15.435 24.6539 17.1181 22.7125 17.1134 20.4244C17.1176 19.0563 16.5052 17.7594 15.4461 16.8935V2.91784C15.4444 1.30712 14.1391 0.00184716 12.5284 0V0ZM16.2798 20.4244C16.2825 22.4961 14.6053 24.178 12.5334 24.1807C10.4616 24.1835 8.77966 22.5061 8.77697 20.4343C8.77546 19.2518 9.33146 18.1378 10.2775 17.4283C10.3825 17.3495 10.4443 17.2259 10.4443 17.0948V15.8392H11.2779V15.0057H10.4443V13.7551H11.2779V12.9216H10.4443V11.671H11.2779V10.8375H10.4443V9.58693H11.2779V8.75336H10.4443V7.50283H11.2779V6.66926H10.4443V5.41873H11.2779V4.58516H10.4443V2.91784C10.4443 1.76672 11.3773 0.833741 12.5284 0.833741C13.6793 0.833741 14.6125 1.76672 14.6125 2.91784V17.0956C14.6125 17.2268 14.6743 17.3504 14.7792 17.429C15.7258 18.1332 16.2825 19.2446 16.2798 20.4244Z" fill="white"></path>
        <path d="M12.9451 18.382V3.75146H12.1115V18.382C10.9838 18.6122 10.2561 19.713 10.4864 20.8407C10.7166 21.9685 11.8173 22.6961 12.9451 22.4659C14.0729 22.2357 14.8005 21.1349 14.5703 20.0072C14.4032 19.1885 13.7636 18.5491 12.9451 18.382ZM12.5283 21.6748C11.8377 21.6748 11.2778 21.115 11.2778 20.4245C11.2778 19.7338 11.8377 19.1739 12.5283 19.1739C13.219 19.1739 13.7789 19.7338 13.7789 20.4245C13.7789 21.115 13.219 21.6748 12.5283 21.6748Z" fill="white"></path>
    </g>
</svg>