<svg width="204" height="117" viewBox="0 0 204 117" fill="none" xmlns="http://www.w3.org/2000/svg">
<path d="M32.0438 106.453H2.04932V108.013H32.0438V106.453ZM147.364 115.811H159.66V113.082H150.345V108.402H158.542V105.673H150.345V101.383H159.66V98.6539H147.551V115.811H147.364ZM130.97 115.811H133.951V101.578H139.167V98.8489H125.94V101.578H131.156V115.811H130.97ZM103.956 115.811H106.937L108.614 111.717H116.252L117.929 115.811H120.91L113.644 98.6539H111.036L103.956 115.811ZM109.545 109.182L112.34 102.358L115.134 109.182H109.545ZM91.1014 115.811H94.0822V101.578H99.2986V98.8489H86.0712V101.578H91.2877V115.811H91.1014ZM72.8438 116.201C76.1973 116.201 78.6192 114.252 78.6192 111.132C78.6192 108.207 76.7562 107.038 73.4027 106.063C70.2356 105.283 69.4904 104.698 69.4904 103.333C69.4904 102.163 70.4219 101.189 72.0986 101.189C73.589 101.189 75.0795 101.773 76.5699 102.943L78.0603 100.604C76.3836 99.2388 74.5206 98.4589 72.0986 98.4589C68.9315 98.4589 66.5096 100.409 66.5096 103.333C66.5096 106.453 68.5589 107.623 71.9123 108.402C74.8932 109.182 75.6384 109.767 75.6384 111.132C75.6384 112.497 74.5206 113.277 72.6575 113.277C70.6082 113.277 69.1178 112.497 67.4411 111.132L65.7644 113.277C68 115.226 70.4219 116.201 72.8438 116.201ZM46.2027 115.811H58.4986V113.082H49.1836V108.402H57.3808V105.673H49.1836V101.383H58.4986V98.6539H46.389V115.811H46.2027ZM191.89 84.2261H204V81.4965H194.685V76.8172H202.882V74.0876H194.685V69.6033H203.814V66.8737H191.89V84.2261ZM176.614 84.421C181.644 84.421 185.184 80.3267 185.184 75.6474C185.184 70.7731 181.644 66.8737 176.614 66.8737C171.584 66.8737 168.044 70.9681 168.044 75.6474C168.044 80.5216 171.584 84.421 176.614 84.421ZM176.614 81.6915C173.447 81.6915 171.025 78.9619 171.025 75.6474C171.025 72.3329 173.26 69.6033 176.427 69.6033C179.595 69.6033 182.016 72.3329 182.016 75.6474C182.203 78.9619 179.967 81.6915 176.614 81.6915ZM149.973 84.2261H152.767V79.3518L155.375 76.6222L160.964 84.2261H164.504L157.425 74.4775L164.132 67.0687H160.592L152.767 75.6474V67.0687H149.973V84.2261ZM137.49 84.421C140.844 84.421 143.266 82.4713 143.266 79.3518C143.266 76.4272 141.403 75.2574 138.049 74.2826C134.882 73.5027 134.137 72.9178 134.137 71.553C134.137 70.3832 135.068 69.4083 136.745 69.4083C138.236 69.4083 139.726 69.9932 141.216 71.163L142.707 68.8234C141.03 67.4586 139.167 66.6787 136.745 66.6787C133.578 66.6787 131.156 68.6284 131.156 71.553C131.156 74.6725 133.019 75.8423 136.559 76.6222C139.54 77.4021 140.285 77.987 140.285 79.3518C140.285 80.7166 139.167 81.4965 137.49 81.4965C135.441 81.4965 133.951 80.7166 132.274 79.3518L130.597 81.4965C132.647 83.4462 135.068 84.421 137.49 84.421ZM117.929 84.2261H120.723V69.9932H125.94V67.2636H112.712V69.9932H117.929V84.2261ZM103.397 84.2261H106.192V67.0687H103.397V84.2261ZM83.2767 84.2261H90.7288C94.2685 84.2261 96.6904 82.6663 96.6904 79.5468C96.6904 77.2071 95.3863 76.0373 93.5233 75.2574C94.6411 74.6725 95.7589 73.5027 95.7589 71.358C95.7589 70.1882 95.3863 69.2133 94.6411 68.4334C93.7096 67.4586 92.2192 66.8737 90.3562 66.8737H83.0904V84.2261H83.2767ZM86.0712 74.2826V69.7982H90.1699C92.0329 69.7982 92.9644 70.5781 92.9644 71.9429C92.9644 73.5027 91.6603 74.2826 89.9836 74.2826H86.0712ZM86.0712 81.4965V76.8172H90.5425C92.7781 76.8172 93.8959 77.5971 93.8959 79.1568C93.8959 80.7166 92.7781 81.4965 90.7288 81.4965H86.0712ZM69.1178 84.421C73.4027 84.421 76.1973 81.8864 76.1973 76.8172V67.0687H73.4027V77.0122C73.4027 80.1317 71.9123 81.6915 69.3041 81.6915C66.6959 81.6915 65.2055 79.9367 65.2055 76.8172V67.0687H62.411V77.0122C62.0384 81.8864 64.8329 84.421 69.1178 84.421ZM45.2712 84.2261H56.6356V81.4965H48.0658V67.0687H45.2712V84.2261ZM29.9945 84.421C35.0247 84.421 38.5644 80.3267 38.5644 75.6474C38.5644 70.7731 35.0247 66.8737 29.9945 66.8737C24.9644 66.8737 21.4247 70.9681 21.4247 75.6474C21.4247 80.5216 24.9644 84.421 29.9945 84.421ZM29.9945 81.6915C26.8274 81.6915 24.4055 78.9619 24.4055 75.6474C24.4055 72.3329 26.6411 69.6033 29.8082 69.6033C32.9753 69.6033 35.3973 72.3329 35.3973 75.6474C35.5836 78.9619 33.1616 81.6915 29.9945 81.6915ZM8.38356 84.421C11.1781 84.421 13.6 83.2512 15.0904 81.6915V74.4775H8.38356V77.0122H12.4822V80.1317C11.5507 80.9116 10.0603 81.4965 8.56986 81.4965C5.21644 81.4965 2.98082 78.9619 2.98082 75.4524C2.98082 72.1379 5.21644 69.4083 8.19726 69.4083C10.2466 69.4083 11.5507 70.1882 12.6685 71.163L14.5315 68.8234C13.0411 67.6536 11.1781 66.6787 8.38356 66.6787C3.53973 66.6787 0 70.7731 0 75.4524C0 80.7166 3.35342 84.421 8.38356 84.421ZM203.068 106.453H173.074V108.013H203.068V106.453Z" fill="white"/>
<path fill-rule="evenodd" clip-rule="evenodd" d="M122.773 10.1385C122.4 10.1385 122.028 10.5284 122.028 10.9184C122.028 11.3083 122.4 11.6982 122.773 11.6982C123.145 11.6982 123.518 11.3083 123.518 10.9184C123.518 10.5284 123.145 10.1385 122.773 10.1385ZM122.959 13.258C121.841 13.6479 120.724 14.6228 119.606 15.9876C119.419 16.1826 119.047 16.3775 118.861 16.3775C117.37 16.5725 114.948 16.3775 112.154 15.0127C111.967 15.0127 111.967 14.8178 112.154 14.8178C113.085 14.4278 114.017 14.0379 115.321 13.258C115.88 12.8681 116.439 12.4781 116.997 11.8932C118.488 10.5284 119.978 9.16362 122.4 9.16362C124.822 9.16362 125.754 12.0882 125.94 13.453C125.381 13.063 124.263 12.8681 122.959 13.258ZM88.3071 42.6986C88.4934 42.6986 88.6797 42.6986 88.6797 42.5036C88.866 42.3086 89.7975 40.9438 106.937 41.3338C108.8 41.3338 110.477 40.7489 111.595 39.3841C112.899 38.0193 113.644 36.2645 113.644 34.3148C113.644 31.1953 111.781 28.4657 108.987 27.6858C113.458 26.321 116.066 22.2267 118.302 18.9122C119.978 16.3775 121.469 14.4278 122.959 13.8429C124.822 13.453 126.126 14.0379 126.126 14.0379C126.313 14.0379 126.313 14.0379 126.499 14.0379C126.685 14.0379 126.685 13.8429 126.685 13.6479C126.685 13.6479 126.499 12.2832 125.94 10.9184C125.008 8.96865 123.891 7.9938 122.214 7.9938C119.606 7.9938 117.743 9.74853 116.439 10.9184C115.88 11.5033 115.321 11.8932 114.762 12.2832C112.899 13.6479 111.967 13.8429 110.663 14.2329C112.34 12.8681 113.458 10.7234 113.458 8.38374C113.458 4.28936 110.663 1.16982 106.751 1.16982C106.192 1.16982 105.261 1.16982 104.143 1.16982C101.348 1.16982 97.6221 1.16982 94.2687 0.974853C91.2879 0.779883 89.7975 0.584912 89.0523 0.389941C88.6797 0.194971 88.4934 0.194971 88.3071 0C88.6797 0 88.6797 0 88.4934 0C88.3071 0 88.3071 0 88.1208 0.194971C88.1208 0.389941 87.9345 0.389941 88.1208 0.584912C88.3071 0.974853 89.9838 4.28936 93.7098 5.26421C92.4057 5.65415 91.1016 6.23906 90.3564 6.82397C90.1701 6.82397 90.1701 7.01894 90.1701 7.21392C90.1701 7.40889 90.1701 7.40889 90.3564 7.60386C90.5427 7.60386 92.4057 8.77368 94.455 9.16362C93.3372 9.55356 92.4057 9.94351 91.8468 10.3334C91.6605 10.3334 91.6605 10.5284 91.6605 10.7234C91.6605 10.9184 91.6605 10.9184 91.8468 11.1133C92.0331 11.1133 93.8961 12.2832 95.7591 12.6731C95.2002 12.8681 94.8276 13.063 94.455 13.258C94.2687 13.258 94.2687 13.453 94.2687 13.6479C94.2687 13.8429 94.2687 13.8429 94.455 14.0379C94.455 14.0379 95.3865 14.6228 96.5043 15.2077C95.5728 15.0127 93.8961 14.8178 91.4742 14.4278C85.3263 13.258 80.4824 11.3083 77.129 8.38374C76.9427 8.38374 76.9427 8.18877 76.7564 8.38374C76.5701 8.38374 76.5701 8.57871 76.5701 8.77368C76.5701 8.96865 76.5701 13.258 80.1098 16.1826C80.4824 16.5725 80.855 16.7675 81.4139 16.9625C80.1098 16.7675 78.8057 17.5474 77.8742 17.9373C77.5016 18.1323 76.9427 18.3272 76.7564 18.3272C76.3838 18.5222 76.3838 18.7172 76.3838 18.9122C76.3838 19.1071 76.3838 19.4971 78.992 20.4719C79.9235 20.8619 81.9728 21.4468 84.0221 21.6417C84.3947 21.6417 84.7673 21.6417 84.9536 21.6417C88.3071 21.6417 89.7975 20.277 89.9838 20.082C93.1509 23.5915 97.2495 26.1261 100.976 27.2959C100.417 27.2959 99.6715 27.2959 99.1126 27.2959H96.8769C96.318 27.2959 94.6413 26.906 94.0824 26.321C93.8961 26.1261 93.7098 26.1261 93.5235 26.321C93.3372 26.321 93.3372 26.516 93.3372 26.711C93.5235 27.1009 94.455 29.2456 96.318 30.4154C94.0824 30.8054 91.8468 31.9752 91.6605 32.1702C91.4742 32.1702 91.4742 32.3651 91.4742 32.5601C91.4742 32.7551 91.4742 32.7551 91.6605 32.95C92.2194 33.34 93.3372 33.7299 94.2687 34.1199C92.2194 34.5098 90.1701 35.6796 90.1701 35.6796C89.9838 35.6796 89.9838 35.8746 89.9838 36.0696C89.9838 36.2645 89.9838 36.2645 90.1701 36.4595C90.9153 36.8495 92.2194 37.4344 93.3372 37.8243C89.9838 38.7992 88.3071 41.5288 87.9345 42.1137C87.9345 42.5036 88.1208 42.6986 88.3071 42.6986ZM118.488 17.5474C118.302 17.9373 118.115 18.1323 117.743 18.5222C116.811 19.887 115.88 21.2518 114.762 22.6166C114.389 23.0065 113.83 22.8116 113.458 22.8116C110.104 22.0317 106.006 20.082 103.77 16.1826C103.77 15.9876 103.584 15.7926 103.956 15.7926C104.515 15.7926 105.074 15.7926 105.447 15.7926C107.496 15.7926 108.987 15.5977 110.477 15.2077C110.663 15.2077 111.036 15.2077 111.222 15.2077C113.644 16.3775 116.252 16.9625 117.929 16.9625H118.115C118.302 17.1574 118.674 17.1574 118.488 17.5474ZM112.899 23.7864C99.1126 23.5915 88.6797 15.2077 87.1893 14.0379C87.003 13.8429 86.8167 13.6479 87.1893 13.6479C88.4934 14.0379 89.9838 14.4278 91.4742 14.6228C95.2002 15.4027 98.74 15.5977 101.534 15.7926C101.907 15.7926 102.652 15.9876 103.025 16.3775C104.329 18.9122 107.31 22.0317 113.085 23.5915C113.085 23.7864 113.085 23.7864 112.899 23.7864ZM112.34 25.1512C110.663 26.516 108.8 27.2959 106.378 27.4909C106.006 27.4909 105.819 27.4909 105.447 27.4909C98.74 26.906 96.6906 21.6417 96.5043 21.0568C96.5043 20.8619 96.5043 20.8619 96.6906 20.8619C100.976 22.8116 106.378 24.5663 112.34 24.7613C112.526 24.7613 112.526 24.9562 112.34 25.1512ZM112.899 34.5098C112.899 36.2645 112.34 38.0193 111.222 38.9941C110.104 40.164 108.8 40.7489 107.124 40.5539C96.318 40.3589 91.6605 40.7489 89.7975 41.3338C90.9153 39.969 92.9646 38.2143 96.1317 38.2143H104.888C105.633 38.7992 106.378 38.9941 107.31 38.9941C109.732 38.9941 111.595 37.0444 111.595 34.5098C111.595 31.9752 109.732 30.0255 107.31 30.0255C106.565 30.0255 105.819 30.2205 105.261 30.6104H99.2989C97.4358 30.6104 95.9454 29.0506 95.2002 27.8808C95.9454 28.2708 96.8769 28.2708 97.2495 28.2708H99.4852C101.348 28.2708 103.77 28.2708 105.633 28.2708C105.819 28.2708 106.006 28.2708 106.192 28.2708H106.378C106.565 28.2708 106.565 28.2708 106.565 28.2708C106.751 28.2708 106.937 28.2708 107.124 28.2708C110.291 28.2708 112.899 31.0003 112.899 34.5098ZM91.2879 36.0696C92.4057 35.4847 94.455 34.7048 96.318 34.7048C98.3674 34.7048 101.721 34.7048 102.652 34.7048C102.652 35.6796 103.025 36.6545 103.77 37.4344H96.1317C95.0139 37.4344 92.7783 36.6545 91.2879 36.0696ZM106.937 30.6104C108.8 30.6104 110.477 32.3651 110.477 34.3148C110.477 36.4595 108.8 38.0193 106.937 38.0193C105.074 38.0193 103.397 36.2645 103.397 34.3148C103.397 32.3651 105.074 30.6104 106.937 30.6104ZM92.7783 32.5601C93.7098 32.1702 95.7591 31.1953 97.4358 31.1953C99.8578 31.1953 103.77 31.1953 103.77 31.1953H103.956C103.397 31.9752 102.839 32.7551 102.839 33.7299C101.907 33.7299 99.2989 33.7299 97.2495 33.7299C96.1317 33.7299 94.0824 33.145 92.7783 32.5601ZM99.4852 26.1261C95.0139 24.3713 90.5427 21.0568 87.9345 16.1826C87.7482 15.9876 87.7482 15.7926 88.1208 15.9876C89.6112 16.9625 91.8468 18.5222 94.8276 20.082C95.0139 20.082 95.2002 20.4719 95.3865 20.6669C96.1317 22.4216 97.4358 24.3713 99.4852 26.1261C99.8578 26.1261 99.8578 26.1261 99.4852 26.1261ZM89.2386 19.887C88.4934 20.277 86.8167 21.2518 84.0221 21.0568C81.2276 20.8619 78.6194 19.692 77.5016 19.1071C77.6879 19.1071 77.8742 18.9122 78.0605 18.7172C79.3646 18.1323 81.6002 16.9625 82.5317 17.1574C84.7673 18.1323 87.5619 18.9122 88.866 19.1071C89.2386 19.3021 89.4249 19.692 89.2386 19.887ZM80.6687 15.0127C78.4331 13.063 77.6879 10.5284 77.5016 9.16362C79.7372 10.9184 82.5317 12.2832 85.6989 13.258C85.8852 13.258 86.0715 13.453 86.0715 13.6479C86.6304 15.2077 87.3756 16.5725 88.1208 17.7423C88.3071 17.9373 88.3071 18.1323 87.9345 18.1323C85.6989 17.7423 82.1591 16.3775 80.6687 15.0127ZM95.5728 13.258C96.8769 12.8681 98.9263 12.6731 100.044 12.6731H105.261C105.819 12.8681 106.378 13.063 107.124 13.063C109.545 13.063 111.408 10.9184 111.408 8.38374C111.408 5.84912 109.545 3.70444 107.124 3.70444C106.192 3.70444 105.261 4.09438 104.702 4.48433H96.318H96.1317C92.9646 4.48433 90.9153 2.53462 89.7975 1.16982C91.8468 1.75474 96.5043 1.94971 104.702 1.94971C105.819 1.94971 106.565 1.94971 107.31 1.94971C110.663 1.94971 113.271 4.6793 113.271 8.38374C113.271 11.6982 110.663 14.6228 107.682 14.8178C105.074 15.0127 100.789 14.8178 100.789 14.8178C98.5536 15.0127 96.5043 13.8429 95.5728 13.258ZM92.7783 10.5284C94.0824 9.94351 96.1317 9.35859 97.0632 9.35859C99.1126 9.35859 101.907 9.35859 102.652 9.35859C102.839 10.3334 103.211 11.3083 103.956 11.8932H103.584C103.584 11.8932 99.6715 11.8932 97.2495 11.8932C95.7591 11.6982 93.8961 10.9184 92.7783 10.5284ZM104.702 5.45918C105.261 4.87427 106.192 4.6793 106.937 4.6793C108.8 4.6793 110.477 6.43403 110.477 8.38374C110.477 10.3334 108.8 12.0882 106.937 12.0882C105.074 12.0882 103.397 10.3334 103.397 8.38374C103.397 7.21392 103.956 6.23906 104.702 5.45918ZM91.2879 7.01894C92.592 6.43403 94.8276 5.65415 95.9454 5.45918H103.584C103.025 6.23906 102.652 7.21392 102.652 8.38374C101.534 8.38374 98.3674 8.38374 96.318 8.38374C94.6413 8.38374 92.4057 7.40889 91.2879 7.01894ZM106.937 7.21392C107.682 7.21392 108.055 7.79883 108.055 8.57871C108.055 9.35859 107.496 9.94351 106.937 9.94351C106.192 9.94351 105.819 9.35859 105.819 8.57871C105.819 7.79883 106.378 7.21392 106.937 7.21392ZM106.937 10.5284C108.055 10.5284 108.8 9.55356 108.8 8.38374C108.8 7.21392 107.869 6.23906 106.937 6.23906C105.819 6.23906 105.074 7.21392 105.074 8.38374C105.074 9.55356 106.006 10.5284 106.937 10.5284ZM106.937 33.145C107.682 33.145 108.055 33.7299 108.055 34.5098C108.055 35.2897 107.496 35.8746 106.937 35.8746C106.192 35.8746 105.819 35.2897 105.819 34.5098C105.819 33.7299 106.378 33.145 106.937 33.145ZM106.937 36.4595C108.055 36.4595 108.8 35.4847 108.8 34.3148C108.8 33.145 107.869 32.1702 106.937 32.1702C105.819 32.1702 105.074 33.145 105.074 34.3148C105.074 35.4847 106.006 36.4595 106.937 36.4595Z" fill="white"/>
</svg>
