<svg width="43" height="37" viewBox="0 0 43 37" fill="none" xmlns="http://www.w3.org/2000/svg">
<path fill-rule="evenodd" clip-rule="evenodd" d="M39.6556 8.78539C39.337 8.78539 39.0185 9.12329 39.0185 9.46119C39.0185 9.79909 39.337 10.137 39.6556 10.137C39.9741 10.137 40.2926 9.79909 40.2926 9.46119C40.2926 9.12329 39.9741 8.78539 39.6556 8.78539ZM39.8148 11.4886C38.8593 11.8265 37.9037 12.6712 36.9481 13.8539C36.7889 14.0228 36.4704 14.1918 36.3111 14.1918C35.037 14.3607 32.9667 14.1918 30.5778 13.0091C30.4185 13.0091 30.4185 12.8402 30.5778 12.8402C31.3741 12.5023 32.1704 12.1644 33.2852 11.4886C33.763 11.1507 34.2407 10.8128 34.7185 10.3059C35.9926 9.12329 37.2667 7.94064 39.337 7.94064C41.4074 7.94064 42.2037 10.4749 42.363 11.6575C41.8852 11.3196 40.9296 11.1507 39.8148 11.4886ZM10.1926 37C10.3519 37 10.5111 37 10.5111 36.831C10.6704 36.6621 11.4667 35.4795 26.1185 35.8174C27.7111 35.8174 29.1444 35.3105 30.1 34.1279C31.2148 32.9452 31.8519 31.4247 31.8519 29.7352C31.8519 27.032 30.2593 24.6667 27.8704 23.9909C31.6926 22.8082 33.9222 19.2603 35.8333 16.3881C37.2667 14.1918 38.5407 12.5023 39.8148 11.9954C41.4074 11.6575 42.5222 12.1644 42.5222 12.1644C42.6815 12.1644 42.6815 12.1644 42.8407 12.1644C43 12.1644 43 11.9954 43 11.8265C43 11.8265 42.8407 10.6438 42.363 9.46119C41.5667 7.77169 40.6111 6.92694 39.1778 6.92694C36.9481 6.92694 35.3556 8.44749 34.2407 9.46119C33.763 9.96804 33.2852 10.3059 32.8074 10.6438C31.2148 11.8265 30.4185 11.9954 29.3037 12.3333C30.737 11.1507 31.6926 9.29224 31.6926 7.26484C31.6926 3.7169 29.3037 1.0137 25.9593 1.0137C25.4815 1.0137 24.6852 1.0137 23.7296 1.0137C21.3407 1.0137 18.1556 1.0137 15.2889 0.844749C12.7407 0.675799 11.4667 0.506849 10.8296 0.3379C10.5111 0.16895 10.3519 0.16895 10.1926 0C10.5111 0 10.5111 0 10.3519 0C10.1926 0 10.1926 0 10.0333 0.16895C10.0333 0.3379 9.87407 0.3379 10.0333 0.506849C10.1926 0.844749 11.6259 3.7169 14.8111 4.56164C13.6963 4.89954 12.5815 5.40639 11.9444 5.91324C11.7852 5.91324 11.7852 6.08219 11.7852 6.25114C11.7852 6.42009 11.7852 6.42009 11.9444 6.58904C12.1037 6.58904 13.6963 7.60274 15.4481 7.94064C14.4926 8.27854 13.6963 8.61644 13.2185 8.95434C13.0593 8.95434 13.0593 9.12329 13.0593 9.29224C13.0593 9.46119 13.0593 9.46119 13.2185 9.63014C13.3778 9.63014 14.9704 10.6438 16.563 10.9817C16.0852 11.1507 15.7667 11.3196 15.4481 11.4886C15.2889 11.4886 15.2889 11.6575 15.2889 11.8265C15.2889 11.9954 15.2889 11.9954 15.4481 12.1644C15.4481 12.1644 16.2444 12.6712 17.2 13.1781C16.4037 13.0091 14.9704 12.8402 12.9 12.5023C7.64444 11.4886 3.50371 9.79909 0.637039 7.26484C0.47778 7.26484 0.477779 7.09589 0.31852 7.26484C0.15926 7.26484 0.159257 7.43379 0.159257 7.60274C0.159257 7.77169 0.159259 11.4886 3.18519 14.0228C3.5037 14.3607 3.82222 14.5297 4.3 14.6986C3.18519 14.5297 2.07037 15.2055 1.27407 15.5434C0.955554 15.7123 0.477779 15.8813 0.31852 15.8813C1.21031e-06 16.0502 0 16.2192 0 16.3881C0 16.5571 2.46807e-06 16.895 2.22963 17.7397C3.02593 18.0776 4.77778 18.5845 6.52963 18.7534C6.84815 18.7534 7.16666 18.7534 7.32592 18.7534C10.1926 18.7534 11.4667 17.5708 11.6259 17.4018C14.3333 20.4429 17.837 22.6393 21.0222 23.653C20.5444 23.653 19.9074 23.653 19.4296 23.653H17.5185C17.0407 23.653 15.6074 23.3151 15.1296 22.8082C14.9704 22.6393 14.8111 22.6393 14.6519 22.8082C14.4926 22.8082 14.4926 22.9772 14.4926 23.1461C14.6518 23.484 15.4481 25.3425 17.0407 26.3562C15.1296 26.6941 13.2185 27.7078 13.0593 27.8767C12.9 27.8767 12.9 28.0457 12.9 28.2146C12.9 28.3836 12.9 28.3836 13.0593 28.5525C13.537 28.8904 14.4926 29.2283 15.2889 29.5662C13.537 29.9041 11.7852 30.9178 11.7852 30.9178C11.6259 30.9178 11.6259 31.0868 11.6259 31.2557C11.6259 31.4247 11.6259 31.4247 11.7852 31.5936C12.4222 31.9315 13.537 32.4384 14.4926 32.7763C11.6259 33.621 10.1926 35.9863 9.87407 36.4932C9.87407 36.8311 10.0333 37 10.1926 37ZM35.9926 15.2055C35.8333 15.5434 35.6741 15.7123 35.3556 16.0502C34.5593 17.2329 33.763 18.4155 32.8074 19.5982C32.4889 19.9361 32.0111 19.7671 31.6926 19.7671C28.8259 19.0913 25.3222 17.4018 23.4111 14.0228C23.4111 13.8539 23.2519 13.6849 23.5704 13.6849C24.0481 13.6849 24.5259 13.6849 24.8444 13.6849C26.5963 13.6849 27.8704 13.516 29.1444 13.1781C29.3037 13.1781 29.6222 13.1781 29.7815 13.1781C31.8519 14.1918 34.0815 14.6986 35.5148 14.6986H35.6741C35.8333 14.8676 36.1518 14.8676 35.9926 15.2055ZM31.2148 20.6119C19.4296 20.4429 10.5111 13.1781 9.23704 12.1644C9.07778 11.9954 8.91852 11.8265 9.23704 11.8265C10.3519 12.1644 11.6259 12.5023 12.9 12.6712C16.0852 13.347 19.1111 13.516 21.5 13.6849C21.8185 13.6849 22.4556 13.8539 22.7741 14.1918C23.8889 16.3881 26.437 19.0913 31.3741 20.4429C31.3741 20.6119 31.3741 20.6119 31.2148 20.6119ZM30.737 21.7945C29.3037 22.9772 27.7111 23.653 25.6407 23.8219C25.3222 23.8219 25.163 23.8219 24.8444 23.8219C19.1111 23.3151 17.3593 18.7534 17.2 18.2466C17.2 18.0776 17.2 18.0776 17.3593 18.0776C21.0222 19.7671 25.6407 21.2877 30.737 21.4566C30.8963 21.4566 30.8963 21.6256 30.737 21.7945ZM31.2148 29.9041C31.2148 31.4247 30.737 32.9452 29.7815 33.79C28.8259 34.8037 27.7111 35.3105 26.2778 35.1416C17.0407 34.9726 13.0593 35.3105 11.4667 35.8174C12.4222 34.6347 14.1741 33.1142 16.8815 33.1142H24.3667C25.0037 33.621 25.6407 33.79 26.437 33.79C28.5074 33.79 30.1 32.1005 30.1 29.9041C30.1 27.7078 28.5074 26.0183 26.437 26.0183C25.8 26.0183 25.163 26.1872 24.6852 26.5251H19.5889C17.9963 26.5251 16.7222 25.1735 16.0852 24.1598C16.7222 24.4977 17.5185 24.4977 17.837 24.4977H19.7481C21.3407 24.4977 23.4111 24.4977 25.0037 24.4977C25.163 24.4977 25.3222 24.4977 25.4815 24.4977H25.6407C25.8 24.4977 25.8 24.4977 25.8 24.4977C25.9593 24.4977 26.1185 24.4977 26.2778 24.4977C28.9852 24.4977 31.2148 26.863 31.2148 29.9041ZM12.7407 31.2557C13.6963 30.7489 15.4481 30.0731 17.0407 30.0731C18.7926 30.0731 21.6593 30.0731 22.4556 30.0731C22.4556 30.9178 22.7741 31.7626 23.4111 32.4384H16.8815C15.9259 32.4384 14.0148 31.7626 12.7407 31.2557ZM26.1185 26.5251C27.7111 26.5251 29.1444 28.0457 29.1444 29.7352C29.1444 31.5936 27.7111 32.9452 26.1185 32.9452C24.5259 32.9452 23.0926 31.4247 23.0926 29.7352C23.0926 28.0457 24.5259 26.5251 26.1185 26.5251ZM14.0148 28.2146C14.8111 27.8767 16.563 27.032 17.9963 27.032C20.0667 27.032 23.4111 27.032 23.4111 27.032H23.5704C23.0926 27.7078 22.6148 28.3836 22.6148 29.2283C21.8185 29.2283 19.5889 29.2283 17.837 29.2283C16.8815 29.2283 15.1296 28.7215 14.0148 28.2146ZM19.7481 22.6393C15.9259 21.1187 12.1037 18.2466 9.87407 14.0228C9.71482 13.8539 9.71481 13.6849 10.0333 13.8539C11.3074 14.6986 13.2185 16.0502 15.7667 17.4018C15.9259 17.4018 16.0852 17.7397 16.2444 17.9087C16.8815 19.4292 17.9963 21.1187 19.7481 22.6393C20.0667 22.6393 20.0667 22.6393 19.7481 22.6393ZM10.9889 17.2329C10.3519 17.5708 8.91852 18.4155 6.52963 18.2466C4.14074 18.0776 1.91111 17.0639 0.955553 16.5571C1.11481 16.5571 1.27408 16.3881 1.43334 16.2192C2.54815 15.7123 4.45926 14.6986 5.25555 14.8676C7.16667 15.7123 9.55556 16.3881 10.6704 16.5571C10.9889 16.726 11.1482 17.0639 10.9889 17.2329ZM3.66296 13.0091C1.75185 11.3196 1.11481 9.12329 0.955553 7.94064C2.86666 9.46119 5.25556 10.6438 7.96296 11.4886C8.12222 11.4886 8.28148 11.6575 8.28148 11.8265C8.75926 13.1781 9.3963 14.3607 10.0333 15.3744C10.1926 15.5434 10.1926 15.7123 9.87407 15.7123C7.96296 15.3744 4.93704 14.1918 3.66296 13.0091ZM16.4037 11.4886C17.5185 11.1507 19.2704 10.9817 20.2259 10.9817H24.6852C25.163 11.1507 25.6407 11.3196 26.2778 11.3196C28.3481 11.3196 29.9407 9.46119 29.9407 7.26484C29.9407 5.06849 28.3481 3.21005 26.2778 3.21005C25.4815 3.21005 24.6852 3.54795 24.2074 3.88584H17.0407H16.8815C14.1741 3.88584 12.4222 2.19635 11.4667 1.0137C13.2185 1.52055 17.2 1.6895 24.2074 1.6895C25.163 1.6895 25.8 1.6895 26.437 1.6895C29.3037 1.6895 31.5333 4.05479 31.5333 7.26484C31.5333 10.137 29.3037 12.6712 26.7556 12.8402C24.5259 13.0091 20.863 12.8402 20.863 12.8402C18.9518 13.0091 17.2 11.9954 16.4037 11.4886ZM14.0148 9.12329C15.1296 8.61644 16.8815 8.10959 17.6778 8.10959C19.4296 8.10959 21.8185 8.10959 22.4556 8.10959C22.6148 8.95434 22.9333 9.79909 23.5704 10.3059H23.2519C23.2519 10.3059 19.9074 10.3059 17.837 10.3059C16.563 10.137 14.9704 9.46119 14.0148 9.12329ZM24.2074 4.73059C24.6852 4.22374 25.4815 4.05479 26.1185 4.05479C27.7111 4.05479 29.1444 5.57534 29.1444 7.26484C29.1444 8.95434 27.7111 10.4749 26.1185 10.4749C24.5259 10.4749 23.0926 8.95434 23.0926 7.26484C23.0926 6.25114 23.5704 5.40639 24.2074 4.73059ZM12.7407 6.08219C13.8556 5.57534 15.7667 4.89954 16.7222 4.73059H23.2519C22.7741 5.40639 22.4556 6.25114 22.4556 7.26484C21.5 7.26484 18.7926 7.26484 17.0407 7.26484C15.6074 7.26484 13.6963 6.42009 12.7407 6.08219ZM26.1185 6.25114C26.7556 6.25114 27.0741 6.75799 27.0741 7.43379C27.0741 8.10959 26.5963 8.61644 26.1185 8.61644C25.4815 8.61644 25.163 8.10959 25.163 7.43379C25.163 6.75799 25.6407 6.25114 26.1185 6.25114ZM26.1185 9.12329C27.0741 9.12329 27.7111 8.27854 27.7111 7.26484C27.7111 6.25114 26.9148 5.40639 26.1185 5.40639C25.163 5.40639 24.5259 6.25114 24.5259 7.26484C24.5259 8.27854 25.3222 9.12329 26.1185 9.12329ZM26.1185 28.7215C26.7556 28.7215 27.0741 29.2283 27.0741 29.9041C27.0741 30.5799 26.5963 31.0868 26.1185 31.0868C25.4815 31.0868 25.163 30.5799 25.163 29.9041C25.163 29.2283 25.6407 28.7215 26.1185 28.7215ZM26.1185 31.5936C27.0741 31.5936 27.7111 30.7489 27.7111 29.7352C27.7111 28.7215 26.9148 27.8767 26.1185 27.8767C25.163 27.8767 24.5259 28.7215 24.5259 29.7352C24.5259 30.7489 25.3222 31.5936 26.1185 31.5936Z" fill="white"/>
</svg>
